<svg width="99.99999999999999" height="99.99999999999999" xmlns="http://www.w3.org/2000/svg">

 <g>
  <title>background</title>
  <rect fill="none" id="canvas_background" height="402" width="582" y="-1" x="-1"/>
 </g>
 <g>
  <title>Layer 1</title>
  <path id="svg_7" fill="#ffffff" d="m67.795,35.397c0.15,-1.599 0.205,-3.775 0.205,-4.397c0,-9.421 -7.402,-16 -18,-16s-18,6.579 -18,16c0,0.622 0.055,2.798 0.205,4.397c-6.228,5.14 -10.205,12.915 -10.205,21.603c0,15.439 12.561,28 28,28s28,-12.561 28,-28c0,-8.688 -3.977,-16.463 -10.205,-21.603zm-31.795,-4.397c0,-8.289 7.031,-12 14,-12s14,3.711 14,12c0,0.457 -0.017,1.086 -0.044,1.742c-4.111,-2.375 -8.876,-3.742 -13.956,-3.742s-9.845,1.367 -13.956,3.742c-0.027,-0.656 -0.044,-1.285 -0.044,-1.742zm14,50c-13.233,0 -24,-10.767 -24,-24s10.767,-24 24,-24s24,10.767 24,24s-10.767,24 -24,24z"/>
  <path id="svg_8" fill="#ffffff" d="m45.494,56.367c0.515,-0.211 0.933,-0.506 1.254,-0.88c0.52,-0.604 0.783,-1.387 0.783,-2.354c0,-1.355 -0.439,-2.395 -1.32,-3.107c-0.88,-0.717 -2.125,-1.073 -3.731,-1.073c-2.033,0 -3.45,0.662 -4.26,2.128c-0.467,0.822 -0.704,1.919 -0.704,2.919l1.963,0c0.035,-1 0.193,-1.512 0.471,-1.996c0.506,-0.88 1.421,-1.284 2.741,-1.284c0.739,0 1.387,0.229 1.945,0.657c0.559,0.426 0.836,1.038 0.836,1.821c0,1.057 -0.418,1.796 -1.254,2.205c-0.476,0.237 -1.087,0.354 -1.826,0.354c-0.163,0 -0.523,0.001 -0.66,-0.008c-0.141,-0.008 0.268,-0.02 -0.732,-0.042l0,1.752c1,-0.009 0.489,-0.014 0.626,-0.018c0.137,-0.005 0.374,-0.009 0.505,-0.009c1.18,0 2.157,0.22 2.822,0.651c0.664,0.431 1.021,1.192 1.021,2.279c0,0.88 -0.303,1.598 -0.933,2.156c-0.629,0.555 -1.459,0.836 -2.503,0.836c-1.342,0 -2.267,-0.361 -2.781,-1.189c-0.291,-0.46 -0.482,-1.165 -0.569,-2.165l-2.068,0c0,1 0.423,2.654 1.263,3.68c0.841,1.021 2.192,1.509 4.054,1.509c1.817,0 3.222,-0.49 4.216,-1.437c0.985,-0.946 1.483,-2.176 1.483,-3.682c0,-0.937 -0.233,-1.736 -0.7,-2.384c-0.467,-0.65 -1.115,-1.09 -1.942,-1.319z"/>
  <path id="svg_9" fill="#ffffff" d="m55.225,60.803c0.409,-0.355 0.973,-0.77 1.689,-1.166l1.51,-0.854c1.329,-0.739 2.249,-1.382 2.76,-1.901c0.889,-0.894 1.333,-1.976 1.333,-3.238c0,-1.197 -0.418,-2.282 -1.25,-3.26c-0.832,-0.977 -2.151,-1.462 -3.956,-1.462c-2.17,0 -3.684,0.98 -4.542,2.507c-0.485,0.863 -0.74,1.571 -0.757,3.571l2.011,0c0.031,-1 0.186,-1.961 0.463,-2.512c0.519,-1.029 1.461,-1.653 2.816,-1.653c0.915,0 1.65,0.214 2.2,0.755c0.55,0.537 0.827,1.24 0.827,2.16c0,0.787 -0.304,1.469 -0.906,2.081c-0.379,0.387 -1.043,0.851 -1.989,1.401l-2.112,1.215c-1.417,0.824 -2.368,1.873 -2.856,2.877c-0.489,1.003 -0.767,1.676 -0.842,3.676l10.376,0l0,-2l-8.166,0c0.193,-1 0.655,-1.555 1.391,-2.197z"/>
 </g>
</svg>