<?xml version="1.0" ?><!DOCTYPE svg  PUBLIC '-//W3C//DTD SVG 1.1//EN'  'http://www.w3.org/Graphics/SVG/1.1/DTD/svg11.dtd'><svg enable-background="new 0 0 100 100" height="100px" id="Layer_1" version="1.1" viewBox="0 0 100 100" width="100px" xml:space="preserve" xmlns="http://www.w3.org/2000/svg" xmlns:xlink="http://www.w3.org/1999/xlink"><g><g><g><g/></g><g/></g></g><g><path d="M67.795,35.397C67.945,33.798,68,31.622,68,31c0-9.421-7.402-16-18-16s-18,6.579-18,16   c0,0.622,0.055,2.798,0.205,4.397C25.977,40.537,22,48.312,22,57c0,15.439,12.561,28,28,28s28-12.561,28-28   C78,48.312,74.023,40.537,67.795,35.397z M36,31c0-8.289,7.031-12,14-12s14,3.711,14,12c0,0.457-0.017,1.086-0.044,1.742   C59.845,30.367,55.08,29,50,29s-9.845,1.367-13.956,3.742C36.017,32.086,36,31.457,36,31z M50,81c-13.233,0-24-10.767-24-24   s10.767-24,24-24s24,10.767,24,24S63.233,81,50,81z" fill="#231F20"/><path d="M45.494,56.367c0.515-0.211,0.933-0.506,1.254-0.88c0.52-0.604,0.783-1.387,0.783-2.354   c0-1.355-0.439-2.395-1.32-3.107c-0.88-0.717-2.125-1.073-3.731-1.073c-2.033,0-3.45,0.662-4.26,2.128   C37.753,51.903,37.516,53,37.516,54h1.963c0.035-1,0.193-1.512,0.471-1.996c0.506-0.88,1.421-1.284,2.741-1.284   c0.739,0,1.387,0.229,1.945,0.657c0.559,0.426,0.836,1.038,0.836,1.821c0,1.057-0.418,1.796-1.254,2.205   c-0.476,0.237-1.087,0.354-1.826,0.354c-0.163,0-0.523,0.001-0.66-0.008C41.591,55.741,42,55.729,41,55.707v1.752   c1-0.009,0.489-0.014,0.626-0.018c0.137-0.005,0.374-0.009,0.505-0.009c1.18,0,2.157,0.22,2.822,0.651   c0.664,0.431,1.021,1.192,1.021,2.279c0,0.88-0.303,1.598-0.933,2.156c-0.629,0.555-1.459,0.836-2.503,0.836   c-1.342,0-2.267-0.361-2.781-1.189C39.466,61.705,39.275,61,39.188,60h-2.068c0,1,0.423,2.654,1.263,3.68   c0.841,1.021,2.192,1.509,4.054,1.509c1.817,0,3.222-0.49,4.216-1.437c0.985-0.946,1.483-2.176,1.483-3.682   c0-0.937-0.233-1.736-0.7-2.384C46.969,57.036,46.321,56.596,45.494,56.367z" fill="#231F20"/><path d="M55.225,60.803c0.409-0.355,0.973-0.77,1.689-1.166l1.51-0.854c1.329-0.739,2.249-1.382,2.76-1.901   c0.889-0.894,1.333-1.976,1.333-3.238c0-1.197-0.418-2.282-1.25-3.26c-0.832-0.977-2.151-1.462-3.956-1.462   c-2.17,0-3.684,0.98-4.542,2.507C52.284,52.292,52.029,53,52.012,55h2.011c0.031-1,0.186-1.961,0.463-2.512   c0.519-1.029,1.461-1.653,2.816-1.653c0.915,0,1.65,0.214,2.2,0.755c0.55,0.537,0.827,1.24,0.827,2.16   c0,0.787-0.304,1.469-0.906,2.081c-0.379,0.387-1.043,0.851-1.989,1.401l-2.112,1.215c-1.417,0.824-2.368,1.873-2.856,2.877   C51.977,62.327,51.699,63,51.624,65H62v-2h-8.166C54.027,62,54.489,61.445,55.225,60.803z" fill="#231F20"/></g></svg>